<svg width="14" height="14" viewBox="0 0 14 14" fill="none" xmlns="http://www.w3.org/2000/svg">
<path d="M12.5437 8.53755C11.562 8.81283 10.5248 8.82185 9.53848 8.56369C8.55217 8.30553 7.65235 7.78949 6.93143 7.06857C6.21052 6.34765 5.69448 5.44783 5.43632 4.46152C5.17816 3.47522 5.18718 2.43797 5.46245 1.4563C4.49462 1.72568 3.61425 2.24394 2.90904 2.95944C2.20383 3.67495 1.6984 4.56274 1.44307 5.53438C1.18775 6.50602 1.19145 7.52759 1.45381 8.49736C1.71617 9.46712 2.22803 10.3512 2.93841 11.0616C3.64879 11.772 4.53289 12.2838 5.50265 12.5462C6.47241 12.8086 7.49399 12.8123 8.46563 12.5569C9.43726 12.3016 10.3251 11.7962 11.0406 11.091C11.7561 10.3858 12.2743 9.50538 12.5437 8.53755Z" stroke="black" stroke-linecap="round" stroke-linejoin="round"/>
</svg>
